#!OML:ASF F:\VICON\USERDATA\INSTALL\rory3\rory3.ASF
:FULLY-SPECIFIED
:DEGREES
537
root 5.07976 16.005 -8.46228 27.5886 -43.4784 -8.23158
lowerback -3.47925 -1.84728 -0.470623
upperback -9.75119 -2.57658 2.01098
thorax -8.16437 -1.24283 2.48657
lowerneck -7.30832 5.14505 5.64689
upperneck 42.2637 4.604 1.52177
head 16.6203 2.58213 0.250741
rclavicle 8.84561e-014 2.62396e-014
rhumerus -7.01939 -33.4624 13.8212
rradius 100.365
rwrist -24.6088
rhand -33.5187 39.996
rfingers 7.12502
rthumb -6.71492 10.1225
lclavicle 8.84561e-014 2.62396e-014
lhumerus -103.608 -58.2129 139.005
lradius 79.2553
lwrist 21.7008
lhand 25.9339 21.3121
lfingers 7.12502
lthumb 50.0172 42.5258
rfemur 154.815 -188.054 -145.283
rtibia 34.8145
rfoot -50.3301 -32.0654
rtoes 21.9991
lfemur -86.1389 24.5496 -44.2983
ltibia 58.9685
lfoot 8.59459 29.64
ltoes 6.47175
538
root 5.07432 16.0096 -8.46076 28.0261 -43.0171 -8.75289
lowerback -3.91238 -1.85434 0.167281
upperback -9.82165 -2.56688 2.33734
thorax -8.00423 -1.27715 2.45873
lowerneck -7.67665 5.2288 5.88879
upperneck 42.5703 4.88194 0.959822
head 16.9264 2.66371 0.0195236
rclavicle 9.27579e-014 -1.94809e-014
rhumerus -9.29092 -31.9221 14.0235
rradius 100.013
rwrist -25.2575
rhand -33.4276 40.645
rfingers 7.12502
rthumb -6.62701 10.7687
lclavicle 9.27579e-014 -1.94809e-014
lhumerus -103.799 -60.2874 138.185
lradius 80.8261
lwrist 22.4823
lhand 27.3218 21.2847
lfingers 7.12502
lthumb 51.2838 41.8063
rfemur 154.892 -187.627 -144.698
rtibia 34.5495
rfoot -50.1117 -31.9463
rtoes 21.7678
lfemur -86.7201 24.4725 -43.9138
ltibia 59.2543
lfoot 9.64455 30.0088
ltoes 7.59397
539
root 5.04243 16.0338 -8.41426 27.756 -43.9948 -8.29113
lowerback -5.29136 -1.71619 -0.0652309
upperback -9.50365 -2.40988 2.10208
thorax -6.86791 -1.20594 2.26567
lowerneck -8.74966 5.45799 6.96808
upperneck 42.9294 5.22974 0.136434
head 17.5213 2.86918 -0.447328
rclavicle -4.29204e-014 -2.46493e-014
rhumerus -11.2146 -30.6822 13.174
rradius 99.4723
rwrist -25.5687
rhand -33.6188 41.1321
rfingers 7.12502
rthumb -6.81162 11.2617
lclavicle -4.29204e-014 -2.46493e-014
lhumerus -102.917 -62.5086 135.791
lradius 82.2491
lwrist 23.3959
lhand 28.5925 21.2285
lfingers 7.12502
lthumb 52.4372 41.0709
rfemur 155.333 -187.55 -145.438
rtibia 34.1381
rfoot -49.5098 -31.3874
rtoes 21.6454
lfemur -87.2831 25.4791 -45.0459
ltibia 59.6014
lfoot 10.4343 29.8466
ltoes 7.13337
540
root 5.0332 16.0455 -8.41774 27.6965 -44.1127 -8.5303
lowerback -5.2754 -1.67253 0.101987
upperback -9.57252 -2.34969 2.20551
thorax -6.95703 -1.18354 2.28399
lowerneck -6.96773 5.67841 6.50183
upperneck 41.3937 5.74704 0.448066
head 16.1835 3.07446 -0.211014
rclavicle 6.85434e-014 -1.86858e-014
rhumerus -13.1408 -29.0219 12.5834
rradius 98.9113
rwrist -26.1629
rhand -33.4153 41.5464
rfingers 7.12502
rthumb -6.6151 11.6697
lclavicle 6.85434e-014 -1.86858e-014
lhumerus -103.362 -64.6991 134.915
lradius 83.7524
lwrist 24.5024
lhand 28.9057 21.494
lfingers 7.12502
lthumb 52.7205 41.1618
rfemur 155.748 -187.918 -145.271
rtibia 33.7565
rfoot -49.3506 -31.8567
rtoes 21.6446
lfemur -87.4723 25.7524 -44.7339
ltibia 59.8353
lfoot 11.7601 30.1459
ltoes 6.42224
541
root 5.03531 16.0563 -8.42982 27.7335 -43.0918 -8.62395
lowerback -4.87745 -1.99133 0.417079
upperback -10.1636 -2.75701 2.76186
thorax -7.81047 -1.38456 2.7426
lowerneck -5.87278 5.52289 4.66561
upperneck 41.2304 5.54439 1.52939
head 15.6722 2.84815 0.502992
rclavicle 2.58172e-014 -1.39149e-014
rhumerus -14.3673 -27.0085 12.2403
rradius 98.1582
rwrist -26.941
rhand -32.488 41.8554
rfingers 7.12502
rthumb -5.71988 11.9526
lclavicle 2.58172e-014 -1.39149e-014
lhumerus -106.754 -66.6858 137.408
lradius 86.0081
lwrist 26.7295
lhand 27.784 22.5935
lfingers 7.12502
lthumb 51.704 42.8734
rfemur 155.792 -186.466 -144.69
rtibia 33.4277
rfoot -48.4048 -32.3475
rtoes 20.1635
lfemur -87.5476 25.0864 -44.2469
ltibia 59.9884
lfoot 13.5849 30.0197
ltoes 5.19073
